<svg width="40" height="40" viewBox="0 0 40 40" fill="none" xmlns="http://www.w3.org/2000/svg">
<mask id="mask0_177_4296" style="mask-type:luminance" maskUnits="userSpaceOnUse" x="5" y="3" width="29" height="34">
<path fill-rule="evenodd" clip-rule="evenodd" d="M5.00049 3.35291H33.4217V36.4421H5.00049V3.35291Z" fill="white"/>
</mask>
<g mask="url(#mask0_177_4296)">
<path fill-rule="evenodd" clip-rule="evenodd" d="M12.6223 5.85291C9.86066 5.85291 7.56733 8.08957 7.50233 10.8479V28.6729C7.44066 31.5279 9.69066 33.8796 12.5173 33.9429H25.9573C28.739 33.8279 30.9423 31.5162 30.9223 28.6829V13.8996L23.1973 5.85291H12.6423H12.6223ZM12.6423 36.4429H12.4607C8.25733 36.3479 4.91066 32.8512 5.00233 28.6462V10.8179C5.09899 6.68291 8.51399 3.35291 12.619 3.35291H12.6473H23.7307C24.0707 3.35291 24.3957 3.49124 24.6323 3.73624L33.074 12.5312C33.2973 12.7629 33.4223 13.0746 33.4223 13.3962V28.6729C33.4523 32.8546 30.1957 36.2712 26.0073 36.4412L12.6423 36.4429Z" fill="#00927C"/>
</g>
<path fill-rule="evenodd" clip-rule="evenodd" d="M32.1641 14.9739H27.5725C24.5225 14.9655 22.0425 12.4789 22.0425 9.43219V4.58386C22.0425 3.89386 22.6025 3.33386 23.2925 3.33386C23.9825 3.33386 24.5425 3.89386 24.5425 4.58386V9.43219C24.5425 11.1055 25.9041 12.4689 27.5758 12.4739H32.1641C32.8541 12.4739 33.4141 13.0339 33.4141 13.7239C33.4141 14.4139 32.8541 14.9739 32.1641 14.9739Z" fill="#00927C"/>
<path fill-rule="evenodd" clip-rule="evenodd" d="M22.9812 26.8474H13.9812C13.2912 26.8474 12.7312 26.2874 12.7312 25.5974C12.7312 24.9074 13.2912 24.3474 13.9812 24.3474H22.9812C23.6712 24.3474 24.2312 24.9074 24.2312 25.5974C24.2312 26.2874 23.6712 26.8474 22.9812 26.8474Z" fill="#00927C"/>
<path fill-rule="evenodd" clip-rule="evenodd" d="M19.5729 20.594H13.9796C13.2896 20.594 12.7296 20.034 12.7296 19.344C12.7296 18.654 13.2896 18.094 13.9796 18.094H19.5729C20.2629 18.094 20.8229 18.654 20.8229 19.344C20.8229 20.034 20.2629 20.594 19.5729 20.594Z" fill="#00927C"/>
</svg>
