<svg width="40" height="40" viewBox="0 0 40 40" fill="none" xmlns="http://www.w3.org/2000/svg">
<mask id="mask0_100_3684" style="mask-type:luminance" maskUnits="userSpaceOnUse" x="5" y="3" width="29" height="34">
<path fill-rule="evenodd" clip-rule="evenodd" d="M5.00049 3.35284H33.4217V36.442H5.00049V3.35284Z" fill="white"/>
</mask>
<g mask="url(#mask0_100_3684)">
<path fill-rule="evenodd" clip-rule="evenodd" d="M12.6223 5.85284C9.86066 5.85284 7.56733 8.08951 7.50233 10.8478V28.6728C7.44066 31.5278 9.69066 33.8795 12.5173 33.9428H25.9573C28.739 33.8278 30.9423 31.5162 30.9223 28.6828V13.8995L23.1973 5.85284H12.6423H12.6223ZM12.6423 36.4428H12.4607C8.25733 36.3478 4.91066 32.8512 5.00233 28.6462V10.8178C5.09899 6.68284 8.51399 3.35284 12.619 3.35284H12.6473H23.7307C24.0707 3.35284 24.3957 3.49118 24.6323 3.73618L33.074 12.5312C33.2973 12.7628 33.4223 13.0745 33.4223 13.3962V28.6728C33.4523 32.8545 30.1957 36.2712 26.0073 36.4412L12.6423 36.4428Z" fill="white"/>
</g>
<path fill-rule="evenodd" clip-rule="evenodd" d="M32.1641 14.9739H27.5725C24.5225 14.9655 22.0425 12.4789 22.0425 9.43219V4.58386C22.0425 3.89386 22.6025 3.33386 23.2925 3.33386C23.9825 3.33386 24.5425 3.89386 24.5425 4.58386V9.43219C24.5425 11.1055 25.9041 12.4689 27.5758 12.4739H32.1641C32.8541 12.4739 33.4141 13.0339 33.4141 13.7239C33.4141 14.4139 32.8541 14.9739 32.1641 14.9739Z" fill="white"/>
<path fill-rule="evenodd" clip-rule="evenodd" d="M22.9812 26.8474H13.9812C13.2912 26.8474 12.7312 26.2874 12.7312 25.5974C12.7312 24.9074 13.2912 24.3474 13.9812 24.3474H22.9812C23.6712 24.3474 24.2312 24.9074 24.2312 25.5974C24.2312 26.2874 23.6712 26.8474 22.9812 26.8474Z" fill="white"/>
<path fill-rule="evenodd" clip-rule="evenodd" d="M19.5729 20.5941H13.9796C13.2896 20.5941 12.7296 20.0341 12.7296 19.3441C12.7296 18.6541 13.2896 18.0941 13.9796 18.0941H19.5729C20.2629 18.0941 20.8229 18.6541 20.8229 19.3441C20.8229 20.0341 20.2629 20.5941 19.5729 20.5941Z" fill="white"/>
</svg>
