<svg width="40" height="40" viewBox="0 0 40 40" fill="none" xmlns="http://www.w3.org/2000/svg">
<path fill-rule="evenodd" clip-rule="evenodd" d="M12.0273 26.6714C11.7606 26.6714 11.4923 26.5864 11.2656 26.4131C10.7189 25.9914 10.6156 25.2064 11.0373 24.6598L16.0256 18.1764C16.2289 17.9114 16.5306 17.7398 16.8606 17.6981C17.1973 17.6548 17.5273 17.7481 17.7889 17.9564L22.4889 21.6481L26.6006 16.3431C27.0239 15.7948 27.8073 15.6931 28.3539 16.1198C28.9006 16.5431 29.0006 17.3281 28.5773 17.8731L23.6939 24.1731C23.4906 24.4364 23.1906 24.6081 22.8606 24.6481C22.5273 24.6931 22.1973 24.5964 21.9339 24.3914L17.2373 20.7014L13.0189 26.1831C12.7723 26.5031 12.4023 26.6714 12.0273 26.6714Z" fill="#00927C"/>
<mask id="mask0_177_4293" style="mask-type:luminance" maskUnits="userSpaceOnUse" x="28" y="3" width="10" height="10">
<path fill-rule="evenodd" clip-rule="evenodd" d="M28.8256 3.3335H37.7322V12.2417H28.8256V3.3335Z" fill="white"/>
</mask>
<g mask="url(#mask0_177_4293)">
<path fill-rule="evenodd" clip-rule="evenodd" d="M33.2789 5.83337C32.2022 5.83337 31.3256 6.70837 31.3256 7.78671C31.3256 8.86337 32.2022 9.74171 33.2789 9.74171C34.3556 9.74171 35.2322 8.86337 35.2322 7.78671C35.2322 6.70837 34.3556 5.83337 33.2789 5.83337ZM33.2789 12.2417C30.8239 12.2417 28.8256 10.2434 28.8256 7.78671C28.8256 5.33004 30.8239 3.33337 33.2789 3.33337C35.7356 3.33337 37.7322 5.33004 37.7322 7.78671C37.7322 10.2434 35.7356 12.2417 33.2789 12.2417Z" fill="#00927C"/>
</g>
<mask id="mask1_177_4293" style="mask-type:luminance" maskUnits="userSpaceOnUse" x="3" y="4" width="34" height="34">
<path fill-rule="evenodd" clip-rule="evenodd" d="M3.33337 4.73682H36.4365V37.8385H3.33337V4.73682Z" fill="white"/>
</mask>
<g mask="url(#mask1_177_4293)">
<path fill-rule="evenodd" clip-rule="evenodd" d="M27.0549 37.8385H12.7149C7.10325 37.8385 3.33325 33.8968 3.33325 28.0302V14.5602C3.33325 8.68515 7.10325 4.73682 12.7149 4.73682H24.8283C25.5183 4.73682 26.0783 5.29682 26.0783 5.98682C26.0783 6.67682 25.5183 7.23682 24.8283 7.23682H12.7149C8.53492 7.23682 5.83325 10.1101 5.83325 14.5602V28.0302C5.83325 32.5385 8.46992 35.3385 12.7149 35.3385H27.0549C31.2349 35.3385 33.9366 32.4701 33.9366 28.0302V16.2985C33.9366 15.6085 34.4966 15.0485 35.1866 15.0485C35.8766 15.0485 36.4366 15.6085 36.4366 16.2985V28.0302C36.4366 33.8968 32.6666 37.8385 27.0549 37.8385Z" fill="#00927C"/>
</g>
</svg>
