<svg width="430" height="209" viewBox="0 0 430 209" fill="none" xmlns="http://www.w3.org/2000/svg">
<g filter="url(#filter0_d_84_1795)">
<path d="M517.971 188.312C493.21 202.153 469.557 215.398 426.242 154.787C382.926 94.1765 336.23 108.802 336.23 108.802C336.23 108.802 238.365 103.335 208.821 19.8955C195.35 -18.1479 84.6 -28.265 99.7409 -67.9792C105.978 -84.3382 39.1842 -78.2299 53.9287 -103.987C63.1501 -120.097 2.02929 -88.0019 -20.468 -128.413C-42.9652 -168.824 -36.9272 -123.861 -76.7441 -138.718C-116.561 -153.575 -8.0883 -401.394 46.6122 -416.082C101.313 -430.77 40.1948 -360.076 95.6369 -370.064C151.079 -380.051 147.608 -300.352 178.273 -333.259C229.599 -388.337 274.674 -278.649 308.253 -275.368C437.716 -262.72 414.571 -238.556 430.486 -220.928C480.167 -165.896 474.35 -237.402 517.582 -188.856C560.815 -140.31 672.571 -107.988 672.571 -107.988C672.571 -107.988 542.732 174.471 517.971 188.312Z" fill="#003059"/>
<path d="M32.232 -116.407C32.2025 -116.356 32.1731 -116.304 32.1438 -116.253C32.1766 -116.311 32.2021 -116.355 32.2191 -116.385L32.232 -116.407ZM638.059 -93.0183C635.472 -87.4795 632.523 -81.1832 629.275 -74.2795C616.752 -47.6584 599.813 -12.0563 582.12 23.9448C564.395 60.0106 546.046 96.2036 530.675 124.116C522.963 138.119 516.213 149.651 510.803 157.919C508.082 162.079 505.957 165.014 504.427 166.887C504.219 167.142 504.036 167.359 503.879 167.542C491.531 174.351 487.461 175.562 483.392 174.846C479.049 174.083 467.31 169.256 446.581 140.251C421.614 105.314 394.015 90.0737 370.582 84.6984C359.162 82.0786 349.344 81.9445 342.113 82.5512C339.183 82.7971 336.664 83.1655 334.617 83.544C332.413 83.2879 329.148 82.8381 325.107 82.0765C316.735 80.4986 305.343 77.6405 293.264 72.5802C269.049 62.4359 244.016 44.3958 232.387 11.5512C225.79 -7.07976 209.106 -18.6862 196.421 -25.9758C185.295 -32.369 172.159 -38.1394 160.744 -43.1539C158.316 -44.2204 155.966 -45.2526 153.73 -46.2494C139.508 -52.5891 129.942 -57.4734 124.606 -61.9669C124.444 -62.1036 124.293 -62.2337 124.154 -62.3571C125.134 -66.1024 125.508 -70.3567 124.754 -74.8966C123.768 -80.8228 121.133 -85.589 118.208 -89.1187C112.999 -95.4034 106.266 -98.5111 102.689 -99.9893C96.9223 -102.373 89.061 -104.347 83.6048 -105.717C82.2528 -106.057 81.0486 -106.359 80.0603 -106.622C79.9952 -106.639 79.9305 -106.656 79.8663 -106.673C79.8573 -113.566 77.2342 -121.048 70.9471 -126.658C65.3932 -131.614 59.2961 -132.947 56.6247 -133.404C53.5097 -133.936 50.6632 -133.955 48.7726 -133.91C45.3192 -133.829 41.3403 -133.394 38.3189 -133.064C38.0972 -133.04 37.8806 -133.016 37.6698 -132.993C34.1078 -132.606 30.7185 -132.245 27.2123 -132.047C11.7701 -131.173 5.02629 -134.015 1.37523 -140.573C-1.71589 -146.126 -4.78127 -151.07 -7.94739 -155.157C-10.9274 -159.005 -15.2955 -163.825 -21.4821 -167.091C-28.8834 -170.998 -36.9162 -171.663 -44.3363 -169.607C-50.1049 -168.009 -54.5171 -164.963 -56.2056 -163.797L-56.3076 -163.726C-58.6925 -162.081 -59.7772 -161.328 -60.3118 -160.973C-60.1658 -165.712 -59.3485 -172.381 -57.5047 -181.066C-52.5699 -204.311 -41.7484 -235.404 -27.6391 -267.368C-13.5799 -299.217 3.17935 -330.653 19.3806 -354.646C27.5035 -366.676 35.0988 -376.255 41.7459 -382.974C42.9645 -384.205 44.1105 -385.3 45.1817 -386.266C45.1663 -385.339 45.1681 -384.401 45.1923 -383.464C45.3262 -378.269 46.1534 -370.255 50.701 -362.482C62.1712 -342.876 84.1395 -342.59 100.069 -345.46C107.357 -346.772 110.792 -345.162 113.311 -343.403C117.063 -340.783 120.539 -336.418 125.568 -329.016C125.889 -328.544 126.229 -328.041 126.585 -327.514C128.582 -324.555 131.098 -320.829 133.61 -317.632C136.475 -313.986 141.229 -308.472 148.107 -304.662C156.246 -300.154 166.103 -298.73 176.147 -302.101C184.774 -304.997 191.477 -310.757 196.563 -316.215C204.495 -324.727 208.386 -323.878 210.135 -323.496L210.227 -323.476C214.988 -322.446 222.215 -318.109 232.63 -308.139C237.494 -303.483 242.373 -298.287 247.527 -292.699C248.353 -291.804 249.192 -290.891 250.041 -289.968C254.3 -285.337 258.814 -280.43 263.197 -275.986C268.432 -270.679 274.369 -265.107 280.726 -260.625C286.87 -256.292 295.446 -251.5 305.822 -250.486C337.513 -247.39 358.86 -243.676 373.321 -239.84C387.913 -235.97 393.981 -232.359 396.413 -230.43C398.03 -229.147 398.599 -228.318 399.855 -225.351C399.985 -225.043 400.149 -224.625 400.35 -224.11C401.816 -220.363 405.261 -211.562 411.929 -204.175C425.332 -189.329 438.423 -178.925 452.864 -175.285C469.169 -171.175 481.529 -177.136 487.365 -179.967C488.296 -180.419 489.056 -180.776 489.667 -181.058C491.359 -179.842 494.387 -177.311 498.912 -172.23C524.556 -143.435 567.964 -121.444 601.523 -107.203C615.036 -101.469 627.668 -96.7032 638.059 -93.0183ZM46.5185 -405.325C46.5221 -405.329 46.5334 -405.248 46.5416 -405.068C46.5191 -405.231 46.515 -405.321 46.5185 -405.325ZM-59.8746 -154.322C-59.8831 -154.307 -59.9333 -154.456 -59.9995 -154.813C-59.8991 -154.515 -59.866 -154.337 -59.8746 -154.322ZM123.101 -59.0733C123.101 -59.0735 123.101 -59.0737 123.101 -59.0739C123.1 -59.0723 123.1 -59.0721 123.101 -59.0733ZM503.141 168.344C503.141 168.343 503.167 168.316 503.22 168.268C503.167 168.321 503.141 168.345 503.141 168.344Z" stroke="#003059" stroke-width="50"/>
</g>
<defs>
<filter id="filter0_d_84_1795" x="-89.3342" y="-418.099" width="765.905" height="626.111" filterUnits="userSpaceOnUse" color-interpolation-filters="sRGB">
<feFlood flood-opacity="0" result="BackgroundImageFix"/>
<feColorMatrix in="SourceAlpha" type="matrix" values="0 0 0 0 0 0 0 0 0 0 0 0 0 0 0 0 0 0 127 0" result="hardAlpha"/>
<feOffset dy="4"/>
<feGaussianBlur stdDeviation="2"/>
<feComposite in2="hardAlpha" operator="out"/>
<feColorMatrix type="matrix" values="0 0 0 0 0 0 0 0 0 0 0 0 0 0 0 0 0 0 0.25 0"/>
<feBlend mode="normal" in2="BackgroundImageFix" result="effect1_dropShadow_84_1795"/>
<feBlend mode="normal" in="SourceGraphic" in2="effect1_dropShadow_84_1795" result="shape"/>
</filter>
</defs>
</svg>
