<svg width="40" height="40" viewBox="0 0 40 40" fill="none" xmlns="http://www.w3.org/2000/svg">
<mask id="mask0_153_2268" style="mask-type:luminance" maskUnits="userSpaceOnUse" x="3" y="1" width="35" height="37">
<path fill-rule="evenodd" clip-rule="evenodd" d="M3.33331 1.66699H37.4996V37.5087H3.33331V1.66699Z" fill="white"/>
</mask>
<g mask="url(#mask0_153_2268)">
<path fill-rule="evenodd" clip-rule="evenodd" d="M22.8613 25.4855C24.868 25.4855 26.5013 27.1072 26.5013 29.1005V34.2272C26.5013 34.6555 26.8447 34.9988 27.2847 35.0088H30.4613C32.9647 35.0088 34.9997 32.9988 34.9997 30.5288V15.9888C34.988 15.1388 34.583 14.3388 33.888 13.8072L22.8997 5.04383C21.4247 3.8755 19.3613 3.8755 17.8813 5.04717L6.96801 13.8038C6.24634 14.3522 5.84134 15.1522 5.83301 16.0172V30.5288C5.83301 32.9988 7.86801 35.0088 10.3713 35.0088H13.578C14.0297 35.0088 14.3963 34.6505 14.3963 34.2105C14.3963 34.1138 14.408 34.0172 14.428 33.9255V29.1005C14.428 27.1188 16.0513 25.4988 18.043 25.4855H22.8613ZM30.4613 37.5088H27.2547C25.418 37.4655 24.0013 36.0238 24.0013 34.2272V29.1005C24.0013 28.4855 23.4897 27.9855 22.8613 27.9855H18.0513C17.4363 27.9888 16.928 28.4905 16.928 29.1005V34.2105C16.928 34.3355 16.9113 34.4555 16.8763 34.5688C16.6963 36.2188 15.2863 37.5088 13.578 37.5088H10.3713C6.48967 37.5088 3.33301 34.3772 3.33301 30.5288V16.0055C3.34967 14.3488 4.11301 12.8322 5.43134 11.8338L16.323 3.09216C18.7213 1.19217 22.063 1.19216 24.4563 3.08883L35.4263 11.8388C36.7147 12.8205 37.478 14.3338 37.4997 15.9705V30.5288C37.4997 34.3772 34.343 37.5088 30.4613 37.5088V37.5088Z" fill="#003059"/>
</g>
</svg>
