<svg width="55" height="55" viewBox="0 0 55 55" fill="none" xmlns="http://www.w3.org/2000/svg">
<mask id="mask0_100_3682" style="mask-type:luminance" maskUnits="userSpaceOnUse" x="4" y="2" width="48" height="50">
<path fill-rule="evenodd" clip-rule="evenodd" d="M4.58337 2.29211H51.5621V51.5744H4.58337V2.29211Z" fill="white"/>
</mask>
<g mask="url(#mask0_100_3682)">
<path fill-rule="evenodd" clip-rule="evenodd" d="M31.4343 35.0425C34.1935 35.0425 36.4393 37.2723 36.4393 40.0132V47.0623C36.4393 47.6513 36.9114 48.1234 37.5164 48.1371H41.8843C45.3264 48.1371 48.1246 45.3734 48.1246 41.9771V21.9846C48.1085 20.8159 47.5516 19.7159 46.596 18.9848L31.4871 6.93524C29.4589 5.32878 26.6218 5.32878 24.5868 6.93982L9.58101 18.9802C8.58872 19.7342 8.03184 20.8342 8.02039 22.0236V41.9771C8.02039 45.3734 10.8185 48.1371 14.2606 48.1371H18.6698C19.2908 48.1371 19.795 47.6444 19.795 47.0394C19.795 46.9065 19.811 46.7736 19.8385 46.6475V40.0132C19.8385 37.2884 22.0706 35.0609 24.8091 35.0425H31.4343ZM41.8843 51.5746H37.4752C34.9498 51.515 33.0018 49.5327 33.0018 47.0623V40.0132C33.0018 39.1675 32.2983 38.48 31.4343 38.48H24.8206C23.975 38.4846 23.276 39.1744 23.276 40.0132V47.0394C23.276 47.2113 23.2531 47.3763 23.205 47.5321C22.9575 49.8009 21.0187 51.5746 18.6698 51.5746H14.2606C8.9233 51.5746 4.58289 47.2686 4.58289 41.9771V22.0075C4.6058 19.7296 5.65539 17.6442 7.46809 16.2715L22.4441 4.2517C25.7418 1.6392 30.3366 1.6392 33.6275 4.24711L48.7112 16.2784C50.4827 17.6282 51.5323 19.709 51.5621 21.9594V41.9771C51.5621 47.2686 47.2216 51.5746 41.8843 51.5746Z" fill="white"/>
</g>
</svg>
