<svg width="33" height="30" viewBox="0 0 33 30" fill="none" xmlns="http://www.w3.org/2000/svg">
<path fill-rule="evenodd" clip-rule="evenodd" d="M14.9222 29.1666H7.18606C3.31639 29.1666 0.167145 26.3489 0.167145 22.8837V7.11765C0.167145 3.65248 3.31639 0.833313 7.18606 0.833313H14.9048C18.7776 0.833313 21.9285 3.65248 21.9285 7.11765V8.43798C21.9285 9.02448 21.3965 9.50048 20.741 9.50048C20.0855 9.50048 19.5535 9.02448 19.5535 8.43798V7.11765C19.5535 4.82265 17.4682 2.95831 14.9048 2.95831H7.18606C4.62581 2.95831 2.54214 4.82265 2.54214 7.11765V22.8837C2.54214 25.1773 4.62581 27.0416 7.18606 27.0416H14.9222C17.4746 27.0416 19.5535 25.183 19.5535 22.8993V21.5634C19.5535 20.9769 20.0855 20.5009 20.741 20.5009C21.3965 20.5009 21.9285 20.9769 21.9285 21.5634V22.8993C21.9285 26.356 18.784 29.1666 14.9222 29.1666" fill="white"/>
<mask id="mask0_502_3025" style="mask-type:luminance" maskUnits="userSpaceOnUse" x="11" y="13" width="22" height="4">
<path fill-rule="evenodd" clip-rule="evenodd" d="M11.2438 13.9375H32.6836V16.0625H11.2438V13.9375Z" fill="white"/>
</mask>
<g mask="url(#mask0_502_3025)">
<path fill-rule="evenodd" clip-rule="evenodd" d="M31.4963 16.0625H12.4313C11.7758 16.0625 11.2438 15.5865 11.2438 15C11.2438 14.4135 11.7758 13.9375 12.4313 13.9375H31.4963C32.1518 13.9375 32.6838 14.4135 32.6838 15C32.6838 15.5865 32.1518 16.0625 31.4963 16.0625" fill="white"/>
</g>
<mask id="mask1_502_3025" style="mask-type:luminance" maskUnits="userSpaceOnUse" x="25" y="9" width="8" height="12">
<path fill-rule="evenodd" clip-rule="evenodd" d="M25.6736 9.80823H32.6836V20.1935H25.6736V9.80823Z" fill="white"/>
</mask>
<g mask="url(#mask1_502_3025)">
<path fill-rule="evenodd" clip-rule="evenodd" d="M26.8607 20.1935C26.5567 20.1935 26.2511 20.09 26.02 19.8804C25.5576 19.4639 25.5592 18.7924 26.0231 18.3787L29.8136 15L26.0231 11.6226C25.5592 11.209 25.5561 10.5375 26.02 10.121C26.4823 9.70446 27.2328 9.70446 27.6983 10.1181L32.3343 14.2477C32.5591 14.446 32.6842 14.718 32.6842 15C32.6842 15.2819 32.5591 15.5539 32.3343 15.7522L27.6983 19.8832C27.4671 20.09 27.1631 20.1935 26.8607 20.1935" fill="white"/>
</g>
</svg>
