<svg width="40" height="40" viewBox="0 0 40 40" fill="none" xmlns="http://www.w3.org/2000/svg">
<path fill-rule="evenodd" clip-rule="evenodd" d="M18.8655 36.6666H10.7222C6.64886 36.6666 3.33386 33.3516 3.33386 29.275V10.7266C3.33386 6.64998 6.64886 3.33331 10.7222 3.33331H18.8472C22.9239 3.33331 26.2405 6.64998 26.2405 10.7266V12.28C26.2405 12.97 25.6805 13.53 24.9905 13.53C24.3005 13.53 23.7405 12.97 23.7405 12.28V10.7266C23.7405 8.02665 21.5455 5.83331 18.8472 5.83331H10.7222C8.0272 5.83331 5.83386 8.02665 5.83386 10.7266V29.275C5.83386 31.9733 8.0272 34.1666 10.7222 34.1666H18.8655C21.5522 34.1666 23.7405 31.98 23.7405 29.2933V27.7216C23.7405 27.0316 24.3005 26.4716 24.9905 26.4716C25.6805 26.4716 26.2405 27.0316 26.2405 27.7216V29.2933C26.2405 33.36 22.9305 36.6666 18.8655 36.6666Z" fill="#003059"/>
<mask id="mask0_177_4306" style="mask-type:luminance" maskUnits="userSpaceOnUse" x="14" y="18" width="24" height="4">
<path fill-rule="evenodd" clip-rule="evenodd" d="M14.9935 18.75H37.5617V21.25H14.9935V18.75Z" fill="white"/>
</mask>
<g mask="url(#mask0_177_4306)">
<path fill-rule="evenodd" clip-rule="evenodd" d="M36.3119 21.25H16.2435C15.5535 21.25 14.9935 20.69 14.9935 20C14.9935 19.31 15.5535 18.75 16.2435 18.75H36.3119C37.0019 18.75 37.5619 19.31 37.5619 20C37.5619 20.69 37.0019 21.25 36.3119 21.25Z" fill="#003059"/>
</g>
<mask id="mask1_177_4306" style="mask-type:luminance" maskUnits="userSpaceOnUse" x="30" y="13" width="8" height="14">
<path fill-rule="evenodd" clip-rule="evenodd" d="M30.1827 13.8921H37.5617V26.11H30.1827V13.8921Z" fill="white"/>
</mask>
<g mask="url(#mask1_177_4306)">
<path fill-rule="evenodd" clip-rule="evenodd" d="M31.4323 26.11C31.1123 26.11 30.7907 25.9883 30.5473 25.7417C30.0607 25.2517 30.0623 24.4617 30.5507 23.975L34.5407 20L30.5507 16.0267C30.0623 15.54 30.059 14.75 30.5473 14.26C31.034 13.77 31.824 13.77 32.314 14.2567L37.194 19.115C37.4307 19.3483 37.5623 19.6683 37.5623 20C37.5623 20.3317 37.4307 20.6517 37.194 20.885L32.314 25.745C32.0707 25.9883 31.7507 26.11 31.4323 26.11Z" fill="#003059"/>
</g>
</svg>
