<svg width="40" height="40" viewBox="0 0 40 40" fill="none" xmlns="http://www.w3.org/2000/svg">
<path fill-rule="evenodd" clip-rule="evenodd" d="M10.4167 5.83331C5.83337 5.83331 5.83337 6.17998 5.83337 10.4166V10.4583C5.83337 12.3033 5.83337 13.6366 6.28504 14.2C6.72671 14.7466 8.03837 15 10.4167 15C12.795 15 14.1067 14.745 14.5484 14.1983C15 13.6366 15 12.3033 15 10.4566C15 6.17998 15 5.83331 10.4167 5.83331ZM10.4167 17.5C7.60671 17.5 5.49837 17.205 4.34004 15.7666C3.33337 14.5183 3.33337 12.815 3.33337 10.4583L4.58337 10.4166H3.33337C3.33337 5.63331 3.63504 3.33331 10.4167 3.33331C17.1984 3.33331 17.5 5.63331 17.5 10.4166C17.5 12.8133 17.5 14.5183 16.4934 15.7666C15.335 17.205 13.2267 17.5 10.4167 17.5Z" fill="white"/>
<path fill-rule="evenodd" clip-rule="evenodd" d="M28.7501 5.83331C24.1667 5.83331 24.1667 6.17998 24.1667 10.4166V10.4583C24.1667 12.3033 24.1667 13.6366 24.6184 14.2C25.0601 14.7466 26.3717 15 28.7501 15C31.1284 15 32.4401 14.745 32.8817 14.1983C33.3334 13.6366 33.3334 12.3033 33.3334 10.4566C33.3334 6.17998 33.3334 5.83331 28.7501 5.83331ZM28.7501 17.5C25.9401 17.5 23.8317 17.205 22.6734 15.7666C21.6667 14.5183 21.6667 12.815 21.6667 10.4583L22.9167 10.4166H21.6667C21.6667 5.63331 21.9684 3.33331 28.7501 3.33331C35.5317 3.33331 35.8334 5.63331 35.8334 10.4166C35.8334 12.8133 35.8334 14.5183 34.8267 15.7666C33.6684 17.205 31.5601 17.5 28.7501 17.5Z" fill="white"/>
<path fill-rule="evenodd" clip-rule="evenodd" d="M10.4167 24.1666C5.83337 24.1666 5.83337 24.5133 5.83337 28.75V28.7916C5.83337 30.6366 5.83337 31.97 6.28504 32.5333C6.72671 33.08 8.03837 33.3333 10.4167 33.3333C12.795 33.3333 14.1067 33.0783 14.5484 32.5316C15 31.97 15 30.6366 15 28.79C15 24.5133 15 24.1666 10.4167 24.1666ZM10.4167 35.8333C7.60671 35.8333 5.49837 35.5383 4.34004 34.1C3.33337 32.8516 3.33337 31.1483 3.33337 28.7916L4.58337 28.75H3.33337C3.33337 23.9666 3.63504 21.6666 10.4167 21.6666C17.1984 21.6666 17.5 23.9666 17.5 28.75C17.5 31.1466 17.5 32.8516 16.4934 34.1C15.335 35.5383 13.2267 35.8333 10.4167 35.8333Z" fill="white"/>
<path fill-rule="evenodd" clip-rule="evenodd" d="M28.7501 24.1666C24.1667 24.1666 24.1667 24.5133 24.1667 28.75V28.7916C24.1667 30.6366 24.1667 31.97 24.6184 32.5333C25.0601 33.08 26.3717 33.3333 28.7501 33.3333C31.1284 33.3333 32.4401 33.0783 32.8817 32.5316C33.3334 31.97 33.3334 30.6366 33.3334 28.79C33.3334 24.5133 33.3334 24.1666 28.7501 24.1666ZM28.7501 35.8333C25.9401 35.8333 23.8317 35.5383 22.6734 34.1C21.6667 32.8516 21.6667 31.1483 21.6667 28.7916L22.9167 28.75H21.6667C21.6667 23.9666 21.9684 21.6666 28.7501 21.6666C35.5317 21.6666 35.8334 23.9666 35.8334 28.75C35.8334 31.1466 35.8334 32.8516 34.8267 34.1C33.6684 35.5383 31.5601 35.8333 28.7501 35.8333Z" fill="white"/>
</svg>
