<svg width="40" height="40" viewBox="0 0 40 40" fill="none" xmlns="http://www.w3.org/2000/svg">
<path fill-rule="evenodd" clip-rule="evenodd" d="M10.4167 5.83337C5.83337 5.83337 5.83337 6.18004 5.83337 10.4167V10.4584C5.83337 12.3034 5.83337 13.6367 6.28504 14.2C6.72671 14.7467 8.03837 15 10.4167 15C12.795 15 14.1067 14.745 14.5484 14.1984C15 13.6367 15 12.3034 15 10.4567C15 6.18004 15 5.83337 10.4167 5.83337ZM10.4167 17.5C7.60671 17.5 5.49837 17.205 4.34004 15.7667C3.33337 14.5184 3.33337 12.815 3.33337 10.4584L4.58337 10.4167H3.33337C3.33337 5.63337 3.63504 3.33337 10.4167 3.33337C17.1984 3.33337 17.5 5.63337 17.5 10.4167C17.5 12.8134 17.5 14.5184 16.4934 15.7667C15.335 17.205 13.2267 17.5 10.4167 17.5Z" fill="#003059"/>
<path fill-rule="evenodd" clip-rule="evenodd" d="M28.7501 5.83337C24.1667 5.83337 24.1667 6.18004 24.1667 10.4167V10.4584C24.1667 12.3034 24.1667 13.6367 24.6184 14.2C25.0601 14.7467 26.3717 15 28.7501 15C31.1284 15 32.4401 14.745 32.8817 14.1984C33.3334 13.6367 33.3334 12.3034 33.3334 10.4567C33.3334 6.18004 33.3334 5.83337 28.7501 5.83337ZM28.7501 17.5C25.9401 17.5 23.8317 17.205 22.6734 15.7667C21.6667 14.5184 21.6667 12.815 21.6667 10.4584L22.9167 10.4167H21.6667C21.6667 5.63337 21.9684 3.33337 28.7501 3.33337C35.5317 3.33337 35.8334 5.63337 35.8334 10.4167C35.8334 12.8134 35.8334 14.5184 34.8267 15.7667C33.6684 17.205 31.5601 17.5 28.7501 17.5Z" fill="#003059"/>
<path fill-rule="evenodd" clip-rule="evenodd" d="M10.4167 24.1667C5.83337 24.1667 5.83337 24.5134 5.83337 28.7501V28.7917C5.83337 30.6367 5.83337 31.9701 6.28504 32.5334C6.72671 33.0801 8.03837 33.3334 10.4167 33.3334C12.795 33.3334 14.1067 33.0784 14.5484 32.5317C15 31.9701 15 30.6367 15 28.7901C15 24.5134 15 24.1667 10.4167 24.1667ZM10.4167 35.8334C7.60671 35.8334 5.49837 35.5384 4.34004 34.1001C3.33337 32.8517 3.33337 31.1484 3.33337 28.7917L4.58337 28.7501H3.33337C3.33337 23.9667 3.63504 21.6667 10.4167 21.6667C17.1984 21.6667 17.5 23.9667 17.5 28.7501C17.5 31.1467 17.5 32.8517 16.4934 34.1001C15.335 35.5384 13.2267 35.8334 10.4167 35.8334Z" fill="#003059"/>
<path fill-rule="evenodd" clip-rule="evenodd" d="M28.7501 24.1667C24.1667 24.1667 24.1667 24.5134 24.1667 28.7501V28.7917C24.1667 30.6367 24.1667 31.9701 24.6184 32.5334C25.0601 33.0801 26.3717 33.3334 28.7501 33.3334C31.1284 33.3334 32.4401 33.0784 32.8817 32.5317C33.3334 31.9701 33.3334 30.6367 33.3334 28.7901C33.3334 24.5134 33.3334 24.1667 28.7501 24.1667ZM28.7501 35.8334C25.9401 35.8334 23.8317 35.5384 22.6734 34.1001C21.6667 32.8517 21.6667 31.1484 21.6667 28.7917L22.9167 28.7501H21.6667C21.6667 23.9667 21.9684 21.6667 28.7501 21.6667C35.5317 21.6667 35.8334 23.9667 35.8334 28.7501C35.8334 31.1467 35.8334 32.8517 34.8267 34.1001C33.6684 35.5384 31.5601 35.8334 28.7501 35.8334Z" fill="#003059"/>
</svg>
