<svg width="40" height="40" viewBox="0 0 40 40" fill="none" xmlns="http://www.w3.org/2000/svg">
<mask id="mask0_177_4301" style="mask-type:luminance" maskUnits="userSpaceOnUse" x="3" y="3" width="33" height="35">
<path fill-rule="evenodd" clip-rule="evenodd" d="M3.33337 3.33411H35.4748V37.8691H3.33337V3.33411Z" fill="white"/>
</mask>
<g mask="url(#mask0_177_4301)">
<path fill-rule="evenodd" clip-rule="evenodd" d="M12.0037 29.0674C12.3853 29.0674 12.767 29.1158 13.1403 29.2158C14.267 29.5191 15.2453 30.2724 15.8253 31.2841C16.202 31.9191 16.4103 32.6608 16.417 33.4174C16.417 34.5008 17.287 35.3691 18.357 35.3691H20.4453C21.5103 35.3691 22.3803 34.5058 22.3853 33.4408C22.3787 32.2641 22.8387 31.1458 23.6803 30.3041C24.5103 29.4741 25.6703 28.9758 26.8303 29.0091C27.5903 29.0274 28.322 29.2324 28.967 29.5991C29.8953 30.1308 31.0803 29.8141 31.617 28.8974L32.7237 27.0524C32.9703 26.6274 33.042 26.0941 32.9103 25.6024C32.7803 25.1108 32.4537 24.6841 32.0137 24.4324C30.9837 23.8391 30.2487 22.8824 29.9437 21.7358C29.642 20.6108 29.807 19.3824 30.3953 18.3708C30.7787 17.7041 31.3403 17.1424 32.0137 16.7558C32.917 16.2274 33.2337 15.0458 32.7087 14.1258C32.687 14.0891 32.667 14.0508 32.6503 14.0108L31.6737 12.3174C31.142 11.3924 29.9587 11.0741 29.0303 11.6024C28.027 12.1958 26.8337 12.3658 25.687 12.0641C24.542 11.7674 23.582 11.0424 22.9837 10.0191C22.6003 9.37911 22.392 8.63411 22.3853 7.87577C22.4003 7.30577 22.2003 6.79411 21.837 6.41911C21.4753 6.04577 20.967 5.83411 20.4453 5.83411H18.357C17.8403 5.83411 17.357 6.03577 16.992 6.39911C16.6287 6.76411 16.4303 7.24911 16.4337 7.76577C16.3987 10.2024 14.407 12.1641 11.9953 12.1641C11.222 12.1558 10.477 11.9474 9.83033 11.5608C8.922 11.0441 7.73533 11.3624 7.20366 12.2874L6.07533 14.1424C5.55866 15.0391 5.87533 16.2241 6.79533 16.7591C8.16033 17.5491 9.012 19.0224 9.012 20.6024C9.012 22.1824 8.16033 23.6541 6.792 24.4458C5.877 24.9758 5.56033 26.1541 6.09033 27.0708L7.142 28.8841C7.402 29.3524 7.827 29.6908 8.31866 29.8291C8.80866 29.9658 9.34866 29.9074 9.79866 29.6574C10.4603 29.2691 11.2303 29.0674 12.0037 29.0674ZM20.4453 37.8691H18.357C15.9087 37.8691 13.917 35.8791 13.917 33.4308C13.9137 33.1291 13.827 32.8158 13.6653 32.5441C13.4037 32.0874 12.9803 31.7608 12.492 31.6308C12.007 31.5008 11.4753 31.5724 11.0387 31.8258C9.992 32.4091 8.76033 32.5508 7.63366 32.2341C6.50866 31.9158 5.537 31.1424 4.967 30.1174L3.92533 28.3224C2.707 26.2091 3.432 23.5008 5.542 22.2808C6.14033 21.9358 6.512 21.2924 6.512 20.6024C6.512 19.9124 6.14033 19.2674 5.542 18.9224C3.43033 17.6958 2.707 14.9808 3.92366 12.8674L5.05366 11.0124C6.25533 8.92244 8.972 8.18577 11.0903 9.40244C11.3787 9.57411 11.692 9.66077 12.0103 9.66411C13.0487 9.66411 13.917 8.80744 13.9337 7.75411C13.927 6.59244 14.3853 5.47744 15.2203 4.63577C16.0587 3.79577 17.172 3.33411 18.357 3.33411H20.4453C21.6387 3.33411 22.7987 3.82411 23.6303 4.67577C24.4603 5.53244 24.9187 6.70744 24.8837 7.89911C24.887 8.16744 24.9753 8.47744 25.1353 8.74911C25.4003 9.19911 25.8187 9.51577 26.3153 9.64577C26.812 9.76911 27.332 9.70244 27.7737 9.44077C29.907 8.22244 32.622 8.95244 33.8403 11.0691L34.8787 12.8674C34.9053 12.9158 34.9287 12.9624 34.9487 13.0108C36.052 15.0958 35.3153 17.7208 33.2653 18.9191C32.967 19.0908 32.7253 19.3308 32.5587 19.6208C32.3003 20.0691 32.2287 20.6024 32.3587 21.0924C32.492 21.5924 32.8103 22.0074 33.2587 22.2641C34.2703 22.8458 35.0253 23.8258 35.327 24.9574C35.6287 26.0874 35.4637 27.3141 34.8753 28.3258L33.7687 30.1691C32.5503 32.2624 29.8353 32.9874 27.7237 31.7674C27.442 31.6058 27.117 31.5174 26.7937 31.5091H26.7837C26.302 31.5091 25.807 31.7141 25.447 32.0724C25.082 32.4374 24.882 32.9241 24.8853 33.4408C24.8737 35.8891 22.882 37.8691 20.4453 37.8691Z" fill="#00927C"/>
</g>
<path fill-rule="evenodd" clip-rule="evenodd" d="M19.4086 17.4576C17.6753 17.4576 16.2653 18.8693 16.2653 20.6026C16.2653 22.336 17.6753 23.7443 19.4086 23.7443C21.1419 23.7443 22.5519 22.336 22.5519 20.6026C22.5519 18.8693 21.1419 17.4576 19.4086 17.4576ZM19.4086 26.2443C16.2969 26.2443 13.7653 23.7143 13.7653 20.6026C13.7653 17.491 16.2969 14.9576 19.4086 14.9576C22.5203 14.9576 25.0519 17.491 25.0519 20.6026C25.0519 23.7143 22.5203 26.2443 19.4086 26.2443Z" fill="#00927C"/>
</svg>
