<svg width="40" height="40" viewBox="0 0 40 40" fill="none" xmlns="http://www.w3.org/2000/svg">
<mask id="mask0_100_3686" style="mask-type:luminance" maskUnits="userSpaceOnUse" x="3" y="3" width="33" height="35">
<path fill-rule="evenodd" clip-rule="evenodd" d="M3.33337 3.33417H35.4748V37.8692H3.33337V3.33417Z" fill="white"/>
</mask>
<g mask="url(#mask0_100_3686)">
<path fill-rule="evenodd" clip-rule="evenodd" d="M12.0037 29.0675C12.3853 29.0675 12.767 29.1158 13.1403 29.2158C14.267 29.5192 15.2453 30.2725 15.8253 31.2842C16.202 31.9192 16.4103 32.6608 16.417 33.4175C16.417 34.5008 17.287 35.3692 18.357 35.3692H20.4453C21.5103 35.3692 22.3803 34.5058 22.3853 33.4408C22.3787 32.2642 22.8387 31.1458 23.6803 30.3042C24.5103 29.4742 25.6703 28.9758 26.8303 29.0092C27.5903 29.0275 28.322 29.2325 28.967 29.5992C29.8953 30.1308 31.0803 29.8142 31.617 28.8975L32.7237 27.0525C32.9703 26.6275 33.042 26.0942 32.9103 25.6025C32.7803 25.1108 32.4537 24.6842 32.0137 24.4325C30.9837 23.8392 30.2487 22.8825 29.9437 21.7358C29.642 20.6108 29.807 19.3825 30.3953 18.3708C30.7787 17.7042 31.3403 17.1425 32.0137 16.7558C32.917 16.2275 33.2337 15.0458 32.7087 14.1258C32.687 14.0892 32.667 14.0508 32.6503 14.0108L31.6737 12.3175C31.142 11.3925 29.9587 11.0742 29.0303 11.6025C28.027 12.1958 26.8337 12.3658 25.687 12.0642C24.542 11.7675 23.582 11.0425 22.9837 10.0192C22.6003 9.37917 22.392 8.63417 22.3853 7.87583C22.4003 7.30583 22.2003 6.79417 21.837 6.41917C21.4753 6.04583 20.967 5.83417 20.4453 5.83417H18.357C17.8403 5.83417 17.357 6.03583 16.992 6.39917C16.6287 6.76417 16.4303 7.24917 16.4337 7.76583C16.3987 10.2025 14.407 12.1642 11.9953 12.1642C11.222 12.1558 10.477 11.9475 9.83033 11.5608C8.922 11.0442 7.73533 11.3625 7.20366 12.2875L6.07533 14.1425C5.55866 15.0392 5.87533 16.2242 6.79533 16.7592C8.16033 17.5492 9.012 19.0225 9.012 20.6025C9.012 22.1825 8.16033 23.6542 6.792 24.4458C5.877 24.9758 5.56033 26.1542 6.09033 27.0708L7.142 28.8842C7.402 29.3525 7.827 29.6908 8.31866 29.8292C8.80866 29.9658 9.34866 29.9075 9.79866 29.6575C10.4603 29.2692 11.2303 29.0675 12.0037 29.0675ZM20.4453 37.8692H18.357C15.9087 37.8692 13.917 35.8792 13.917 33.4308C13.9137 33.1292 13.827 32.8158 13.6653 32.5442C13.4037 32.0875 12.9803 31.7608 12.492 31.6308C12.007 31.5008 11.4753 31.5725 11.0387 31.8258C9.992 32.4092 8.76033 32.5508 7.63366 32.2342C6.50866 31.9158 5.537 31.1425 4.967 30.1175L3.92533 28.3225C2.707 26.2092 3.432 23.5008 5.542 22.2808C6.14033 21.9358 6.512 21.2925 6.512 20.6025C6.512 19.9125 6.14033 19.2675 5.542 18.9225C3.43033 17.6958 2.707 14.9808 3.92366 12.8675L5.05366 11.0125C6.25533 8.9225 8.972 8.18583 11.0903 9.4025C11.3787 9.57417 11.692 9.66083 12.0103 9.66417C13.0487 9.66417 13.917 8.8075 13.9337 7.75417C13.927 6.5925 14.3853 5.4775 15.2203 4.63583C16.0587 3.79583 17.172 3.33417 18.357 3.33417H20.4453C21.6387 3.33417 22.7987 3.82417 23.6303 4.67583C24.4603 5.5325 24.9187 6.7075 24.8837 7.89917C24.887 8.1675 24.9753 8.4775 25.1353 8.74917C25.4003 9.19917 25.8187 9.51583 26.3153 9.64583C26.812 9.76917 27.332 9.7025 27.7737 9.44083C29.907 8.2225 32.622 8.9525 33.8403 11.0692L34.8787 12.8675C34.9053 12.9158 34.9287 12.9625 34.9487 13.0108C36.052 15.0958 35.3153 17.7208 33.2653 18.9192C32.967 19.0908 32.7253 19.3308 32.5587 19.6208C32.3003 20.0692 32.2287 20.6025 32.3587 21.0925C32.492 21.5925 32.8103 22.0075 33.2587 22.2642C34.2703 22.8458 35.0253 23.8258 35.327 24.9575C35.6287 26.0875 35.4637 27.3142 34.8753 28.3258L33.7687 30.1692C32.5503 32.2625 29.8353 32.9875 27.7237 31.7675C27.442 31.6058 27.117 31.5175 26.7937 31.5092H26.7837C26.302 31.5092 25.807 31.7142 25.447 32.0725C25.082 32.4375 24.882 32.9242 24.8853 33.4408C24.8737 35.8892 22.882 37.8692 20.4453 37.8692Z" fill="white"/>
</g>
<path fill-rule="evenodd" clip-rule="evenodd" d="M19.4086 17.4576C17.6753 17.4576 16.2653 18.8693 16.2653 20.6026C16.2653 22.336 17.6753 23.7443 19.4086 23.7443C21.1419 23.7443 22.5519 22.336 22.5519 20.6026C22.5519 18.8693 21.1419 17.4576 19.4086 17.4576ZM19.4086 26.2443C16.2969 26.2443 13.7653 23.7143 13.7653 20.6026C13.7653 17.491 16.2969 14.9576 19.4086 14.9576C22.5203 14.9576 25.0519 17.491 25.0519 20.6026C25.0519 23.7143 22.5203 26.2443 19.4086 26.2443Z" fill="white"/>
</svg>
