<svg width="430" height="211" viewBox="0 0 430 211" fill="none" xmlns="http://www.w3.org/2000/svg">
<g filter="url(#filter0_d_88_2527)">
<path d="M521.971 190.312C497.21 204.153 473.557 217.398 430.242 156.787C386.926 96.1765 340.23 110.802 340.23 110.802C340.23 110.802 242.365 105.335 212.821 21.8955C199.35 -16.1479 88.6 -26.265 103.741 -65.9792C109.978 -82.3382 43.1842 -76.2299 57.9287 -101.987C67.1501 -118.097 6.02929 -86.0019 -16.468 -126.413C-38.9652 -166.824 -32.9272 -121.861 -72.7441 -136.718C-112.561 -151.575 -4.0883 -399.394 50.6122 -414.082C105.313 -428.77 44.1948 -358.076 99.6369 -368.064C155.079 -378.051 151.608 -298.352 182.273 -331.259C233.599 -386.337 278.674 -276.649 312.253 -273.368C441.716 -260.72 418.571 -236.556 434.486 -218.928C484.167 -163.896 478.35 -235.402 521.582 -186.856C564.815 -138.31 676.571 -105.988 676.571 -105.988C676.571 -105.988 546.732 176.471 521.971 190.312Z" fill="#003059"/>
<path d="M36.232 -114.407C36.2025 -114.356 36.1731 -114.304 36.1438 -114.253C36.1766 -114.311 36.2021 -114.355 36.2191 -114.385L36.232 -114.407ZM642.059 -91.0183C639.472 -85.4795 636.523 -79.1832 633.275 -72.2795C620.752 -45.6584 603.813 -10.0563 586.12 25.9448C568.395 62.0106 550.046 98.2036 534.675 126.116C526.963 140.119 520.213 151.651 514.803 159.919C512.082 164.079 509.957 167.014 508.427 168.887C508.219 169.142 508.036 169.359 507.879 169.542C495.531 176.351 491.461 177.562 487.392 176.846C483.049 176.083 471.31 171.256 450.581 142.251C425.614 107.314 398.015 92.0737 374.582 86.6984C363.162 84.0786 353.344 83.9445 346.113 84.5512C343.183 84.7971 340.664 85.1655 338.617 85.544C336.413 85.2879 333.148 84.8381 329.107 84.0765C320.735 82.4986 309.343 79.6405 297.264 74.5802C273.049 64.4359 248.016 46.3958 236.387 13.5512C229.79 -5.07976 213.106 -16.6862 200.421 -23.9758C189.295 -30.369 176.159 -36.1394 164.744 -41.1539C162.316 -42.2204 159.966 -43.2526 157.73 -44.2494C143.508 -50.5891 133.942 -55.4734 128.606 -59.9669C128.444 -60.1036 128.293 -60.2337 128.154 -60.3571C129.134 -64.1024 129.508 -68.3567 128.754 -72.8966C127.768 -78.8228 125.133 -83.589 122.208 -87.1187C116.999 -93.4034 110.266 -96.5111 106.689 -97.9893C100.922 -100.373 93.061 -102.347 87.6048 -103.717C86.2528 -104.057 85.0486 -104.359 84.0603 -104.622C83.9952 -104.639 83.9305 -104.656 83.8663 -104.673C83.8573 -111.566 81.2342 -119.048 74.9471 -124.658C69.3932 -129.614 63.2961 -130.947 60.6247 -131.404C57.5097 -131.936 54.6632 -131.955 52.7726 -131.91C49.3192 -131.829 45.3403 -131.394 42.3189 -131.064C42.0972 -131.04 41.8806 -131.016 41.6698 -130.993C38.1078 -130.606 34.7185 -130.245 31.2123 -130.047C15.7701 -129.173 9.02629 -132.015 5.37523 -138.573C2.28411 -144.126 -0.781268 -149.07 -3.94739 -153.157C-6.92736 -157.005 -11.2955 -161.825 -17.4821 -165.091C-24.8834 -168.998 -32.9162 -169.663 -40.3363 -167.607C-46.1049 -166.009 -50.5171 -162.963 -52.2056 -161.797L-52.3076 -161.726C-54.6925 -160.081 -55.7772 -159.328 -56.3118 -158.973C-56.1658 -163.712 -55.3485 -170.381 -53.5047 -179.066C-48.5699 -202.311 -37.7484 -233.404 -23.6391 -265.368C-9.57986 -297.217 7.17935 -328.653 23.3806 -352.646C31.5035 -364.676 39.0988 -374.255 45.7459 -380.974C46.9645 -382.205 48.1105 -383.3 49.1817 -384.266C49.1663 -383.339 49.1681 -382.401 49.1923 -381.464C49.3262 -376.269 50.1534 -368.255 54.701 -360.482C66.1712 -340.876 88.1395 -340.59 104.069 -343.46C111.357 -344.772 114.792 -343.162 117.311 -341.403C121.063 -338.783 124.539 -334.418 129.568 -327.016C129.889 -326.544 130.229 -326.041 130.585 -325.514C132.582 -322.555 135.098 -318.829 137.61 -315.632C140.475 -311.986 145.229 -306.472 152.107 -302.662C160.246 -298.154 170.103 -296.73 180.147 -300.101C188.774 -302.997 195.477 -308.757 200.563 -314.215C208.495 -322.727 212.386 -321.878 214.135 -321.496L214.227 -321.476C218.988 -320.446 226.215 -316.109 236.63 -306.139C241.494 -301.483 246.373 -296.287 251.527 -290.699C252.353 -289.804 253.192 -288.891 254.041 -287.968C258.3 -283.337 262.814 -278.43 267.197 -273.986C272.432 -268.679 278.369 -263.107 284.726 -258.625C290.87 -254.292 299.446 -249.5 309.822 -248.486C341.513 -245.39 362.86 -241.676 377.321 -237.84C391.913 -233.97 397.981 -230.359 400.413 -228.43C402.03 -227.147 402.599 -226.318 403.855 -223.351C403.985 -223.043 404.149 -222.625 404.35 -222.11C405.816 -218.363 409.261 -209.562 415.929 -202.175C429.332 -187.329 442.423 -176.925 456.864 -173.285C473.169 -169.175 485.529 -175.136 491.365 -177.967C492.296 -178.419 493.056 -178.776 493.667 -179.058C495.359 -177.842 498.387 -175.311 502.912 -170.23C528.556 -141.435 571.964 -119.444 605.523 -105.203C619.036 -99.4693 631.668 -94.7032 642.059 -91.0183ZM50.5185 -403.325C50.5221 -403.329 50.5334 -403.248 50.5416 -403.068C50.5191 -403.231 50.515 -403.321 50.5185 -403.325ZM-55.8746 -152.322C-55.8831 -152.307 -55.9333 -152.456 -55.9995 -152.813C-55.8991 -152.515 -55.866 -152.337 -55.8746 -152.322ZM127.101 -57.0733C127.101 -57.0735 127.101 -57.0737 127.101 -57.0739C127.1 -57.0723 127.1 -57.0721 127.101 -57.0733ZM507.141 170.344C507.141 170.343 507.167 170.316 507.22 170.268C507.167 170.321 507.141 170.345 507.141 170.344Z" stroke="#003059" stroke-width="50"/>
</g>
<defs>
<filter id="filter0_d_88_2527" x="-85.3342" y="-416.099" width="765.905" height="626.111" filterUnits="userSpaceOnUse" color-interpolation-filters="sRGB">
<feFlood flood-opacity="0" result="BackgroundImageFix"/>
<feColorMatrix in="SourceAlpha" type="matrix" values="0 0 0 0 0 0 0 0 0 0 0 0 0 0 0 0 0 0 127 0" result="hardAlpha"/>
<feOffset dy="4"/>
<feGaussianBlur stdDeviation="2"/>
<feComposite in2="hardAlpha" operator="out"/>
<feColorMatrix type="matrix" values="0 0 0 0 0 0 0 0 0 0 0 0 0 0 0 0 0 0 0.25 0"/>
<feBlend mode="normal" in2="BackgroundImageFix" result="effect1_dropShadow_88_2527"/>
<feBlend mode="normal" in="SourceGraphic" in2="effect1_dropShadow_88_2527" result="shape"/>
</filter>
</defs>
</svg>
